<svg xmlns="http://www.w3.org/2000/svg" viewBox="0 0 308.09875 28.248249" height="28.248" width="308.099"><defs><clipPath id="a"><path d="M0 22.6h246.48V0H0v22.6z"/></clipPath></defs><path d="M0 0v22.41h5.366v-9.147h10.7V8.538h-10.7V4.724H16.74V0H0z" fill="#fff"/><g clip-path="url(#a)" transform="matrix(1.25 0 0 -1.25 0 28.25)"><path d="M23.68 9.963v.702l-2.16-.216c-.56-.055-1.013-.127-1.364-.217-.35-.09-.626-.2-.824-.324-.198-.127-.333-.27-.405-.433-.072-.162-.107-.35-.107-.567 0-.414.152-.765.46-1.053.304-.29.798-.432 1.483-.432.36 0 .716.05 1.066.148.35.1.662.247.93.446.272.197.49.458.663.782.17.324.256.71.256 1.16m-8.64 3.835c.09.882.345 1.61.77 2.187.422.576.943 1.03 1.564 1.364.62.333 1.3.562 2.04.688.737.125 1.457.19 2.16.19 2.015 0 3.523-.41 4.522-1.23 1-.82 1.48-2.19 1.444-4.117l-.053-2.89c-.02-.882-.01-1.755.026-2.62.036-.863.1-1.763.19-2.7h-3.59l-.082 1.35c-.468-.61-1.062-1.043-1.782-1.295s-1.548-.378-2.484-.378c-.846 0-1.59.117-2.228.35-.638.235-1.178.554-1.62.96-.44.405-.773.877-1 1.417-.223.54-.336 1.116-.336 1.728 0 .648.113 1.197.337 1.647.226.45.536.826.932 1.133.665.504 1.502.855 2.51 1.053 1.008.198 2.043.35 3.105.46l2.107.215v.325c0 .63-.195 1.08-.58 1.35-.388.27-.96.405-1.716.405-.666 0-1.22-.13-1.66-.392-.442-.26-.68-.688-.716-1.282l-3.86.08zM30.267 17.9h4.05v-1.538c.45.54.98.976 1.593 1.31.61.332 1.44.5 2.484.5 1.025 0 1.853-.177 2.483-.528.63-.35 1.153-.904 1.567-1.66.54.7 1.178 1.24 1.917 1.62.738.377 1.638.567 2.7.567 1.89 0 3.204-.62 3.942-1.863.252-.414.433-.91.54-1.484.11-.576.162-1.342.162-2.295V4.67h-4.13v6.67c0 .738-.032 1.313-.095 1.728-.065.413-.167.746-.312 1-.323.502-.88.755-1.673.755-.882 0-1.508-.27-1.876-.81-.37-.54-.555-1.414-.555-2.62V4.67h-4.158v6.67c0 .738-.032 1.313-.095 1.728-.064.413-.166.746-.31 1-.324.502-.882.755-1.674.755-.865 0-1.486-.27-1.864-.81-.378-.54-.566-1.414-.566-2.62V4.67h-4.13V17.9zM61.235 15.255c-.36 0-.712-.045-1.054-.135-.34-.09-.65-.234-.93-.432-.28-.2-.504-.45-.675-.756-.17-.306-.256-.666-.256-1.08h5.776c0 .414-.08.77-.243 1.066-.16.298-.378.545-.647.743-.27.2-.576.347-.918.447-.342.098-.694.148-1.053.148m.107-10.908c-1.116 0-2.12.176-3.01.526-.89.352-1.647.837-2.268 1.458-.62.622-1.098 1.365-1.43 2.23-.335.863-.5 1.8-.5 2.807 0 1.043.184 1.993.553 2.85.37.853.873 1.582 1.512 2.185.638.603 1.393 1.067 2.267 1.39.873.325 1.813.487 2.822.487 1.132 0 2.145-.18 3.036-.54.89-.36 1.638-.887 2.24-1.58.604-.694 1.045-1.54 1.324-2.54.28-.998.382-2.145.31-3.44h-9.908c.017-.415.117-.78.297-1.095.178-.314.408-.576.687-.782.28-.207.603-.365.972-.473.368-.108.742-.162 1.12-.162 1.494 0 2.474.54 2.942 1.62l3.835-.702c-.307-.792-.698-1.454-1.175-1.984-.477-.532-1.017-.968-1.62-1.31-.603-.342-1.247-.585-1.93-.73-.685-.143-1.377-.215-2.08-.215M70.954 22.6h13.392v-3.78h-9.1v-3.052h8.56v-3.78h-8.56V4.672h-4.292V22.6zM90.907 4.67h-4.13V22.6h4.13V4.67zM94.47 0v3.267h1.054c.43 0 .783.01 1.052.027.27.02.496.067.675.148.18.08.32.2.42.35.1.154.202.357.31.61l.136.35-5.05 13.15h4.537l2.483-8.182 2.674 8.18h4.428l-5.292-13.23c-.342-.863-.675-1.592-1-2.186-.323-.594-.697-1.076-1.12-1.445-.423-.37-.93-.635-1.526-.797C97.657.08 96.918 0 96.036 0H94.47zM113.397 16.335c.432.558.99 1.003 1.674 1.337.685.332 1.55.5 2.594.5.81 0 1.542-.132 2.2-.393.656-.26 1.19-.653 1.606-1.175.323-.415.567-.94.73-1.58.16-.638.242-1.49.242-2.55V4.67h-4.13v6.643c0 .81-.046 1.426-.136 1.85-.09.422-.225.75-.405.984-.197.252-.435.428-.715.528-.28.098-.59.148-.93.148-.883 0-1.544-.27-1.986-.81-.442-.54-.662-1.43-.662-2.673V4.67h-4.13V17.9h4.05v-1.565zM132.11 15.255c-.36 0-.713-.045-1.055-.135-.342-.09-.652-.234-.93-.432-.28-.2-.505-.45-.676-.756-.172-.306-.257-.666-.257-1.08h5.777c0 .414-.08.77-.243 1.066-.16.298-.378.545-.647.743-.27.2-.576.347-.918.447-.342.098-.694.148-1.053.148m.106-10.908c-1.116 0-2.12.176-3.01.526-.89.352-1.647.837-2.268 1.458-.62.622-1.098 1.365-1.43 2.23-.335.863-.5 1.8-.5 2.807 0 1.043.184 1.993.553 2.85.37.853.874 1.582 1.513 2.185.64.603 1.394 1.067 2.268 1.39.874.325 1.814.487 2.823.487 1.133 0 2.146-.18 3.037-.54.89-.36 1.638-.887 2.24-1.58.604-.694 1.045-1.54 1.324-2.54.28-.998.382-2.145.31-3.44h-9.908c.017-.415.117-.78.297-1.095.18-.314.41-.576.688-.782.28-.207.604-.365.973-.473.37-.108.743-.162 1.12-.162 1.495 0 2.475.54 2.943 1.62l3.835-.702c-.306-.792-.697-1.454-1.174-1.984-.477-.532-1.017-.968-1.62-1.31-.603-.342-1.247-.585-1.93-.73-.685-.143-1.377-.215-2.08-.215M142.853 21.87h4.13V17.9h2.972v-3.213h-2.97V9.45c0-.63.125-1.04.377-1.228.252-.19.72-.285 1.404-.285h1.19V4.67h-2.648c-.828 0-1.525.05-2.093.15-.566.098-1.025.282-1.377.553-.35.27-.602.652-.756 1.147-.153.496-.23 1.138-.23 1.93v6.237h-2.132V17.9h2.133v3.97zM160.566 21.033V13.23h3.726c.756 0 1.462.04 2.12.12.656.082 1.237.257 1.74.528.505.27.9.66 1.19 1.175.287.512.43 1.19.43 2.038 0 .846-.143 1.526-.43 2.04-.29.512-.685.913-1.19 1.2-.503.288-1.084.477-1.74.567-.658.09-1.364.136-2.12.136h-3.726zm3.51 1.565c1.08 0 2.08-.08 2.997-.243.918-.16 1.705-.45 2.362-.863.657-.415 1.17-.977 1.54-1.688.368-.71.553-1.616.553-2.713s-.185-1.997-.554-2.7c-.37-.702-.882-1.254-1.54-1.66-.656-.405-1.443-.684-2.36-.837-.92-.153-1.918-.23-2.998-.23h-3.51V4.672h-1.674V22.6h5.184zM175.39 4.67h-1.567V17.9h1.566V4.67zm0 15.445h-1.567v2.483h1.566v-2.483zM193.18 21.195h1.567V17.9h2.673v-1.35h-2.673V8.18c0-.43.014-.787.04-1.066.028-.28.1-.495.216-.648.117-.153.302-.256.554-.31.252-.055.603-.08 1.053-.08h.81V4.67h-1.296c-.593 0-1.085.04-1.47.122-.39.08-.69.238-.906.472-.215.235-.364.563-.445.986-.08.423-.122.967-.122 1.633v8.667h-2.24v1.35h2.24v3.295zm-8.612-3.078c.757 0 1.45-.117 2.08-.352.63-.233 1.178-.544 1.646-.93.468-.388.846-.838 1.134-1.35.288-.514.486-1.04.594-1.58l-1.62-.217c-.252 1.027-.734 1.787-1.445 2.282-.71.495-1.56.743-2.55.743-.578 0-1.13-.118-1.662-.35-.53-.235-1-.582-1.403-1.04-.405-.46-.725-1.026-.96-1.702-.233-.674-.35-1.46-.35-2.362 0-.917.117-1.723.35-2.416.235-.693.555-1.27.96-1.728.404-.46.872-.8 1.403-1.025.532-.227 1.094-.34 1.688-.34 1.17 0 2.093.293 2.768.878.675.585 1.112 1.3 1.31 2.146l1.62-.216c-.27-1.278-.914-2.3-1.93-3.064-1.017-.765-2.29-1.148-3.82-1.148-.955 0-1.805.172-2.553.514-.747.34-1.376.814-1.89 1.417-.512.603-.9 1.327-1.16 2.174-.26.847-.392 1.773-.392 2.78 0 1.01.135 1.937.405 2.782.27.846.67 1.57 1.202 2.174.53.603 1.178 1.075 1.944 1.417.765.342 1.642.514 2.632.514M208.787 6.83c-.162-.323-.364-.634-.607-.93-.244-.298-.537-.56-.878-.784-.342-.224-.747-.41-1.215-.554-.468-.143-1.008-.215-1.62-.215-.756 0-1.39.103-1.904.31-.512.207-.95.5-1.31.878-.755.827-1.133 2.187-1.133 4.077v8.29h1.565V9.934c0-.828.07-1.51.204-2.05.133-.54.335-.973.606-1.297.486-.594 1.224-.89 2.214-.89.576 0 1.11.115 1.606.35.495.233.927.557 1.296.97.37.416.657.92.864 1.514.207.594.31 1.25.31 1.97v7.4h1.566V4.67h-1.565v2.16zM220.07 16.308c-.125.018-.246.027-.363.027h-.337c-.702 0-1.275-.117-1.715-.35-.44-.235-.788-.568-1.04-1-.252-.432-.428-.945-.526-1.538-.1-.595-.15-1.252-.15-1.972V4.67h-1.54v13.232h1.486v-2.27c.306.812.8 1.41 1.486 1.797.683.386 1.43.58 2.24.58h.217c.07 0 .15-.01.24-.028v-1.674zM227.713 16.767c-1.24 0-2.29-.387-3.146-1.16-.854-.775-1.345-1.89-1.47-3.35h8.91c0 .577-.095 1.135-.284 1.675-.19.54-.468 1.022-.837 1.444-.37.423-.82.76-1.35 1.013-.53.25-1.138.377-1.823.377m-.026-12.42c-.99 0-1.872.167-2.647.5-.773.333-1.427.805-1.957 1.417s-.936 1.34-1.215 2.188c-.28.845-.42 1.772-.42 2.78 0 1.062.16 2.02.474 2.876.314.854.75 1.58 1.31 2.174.557.593 1.218 1.047 1.984 1.363.765.314 1.606.473 2.524.473.954 0 1.814-.18 2.578-.54.766-.36 1.41-.856 1.93-1.486.524-.63.91-1.39 1.162-2.28.252-.893.352-1.86.297-2.903H223.07c0-.794.117-1.51.35-2.148.234-.64.558-1.184.973-1.634.414-.45.913-.792 1.498-1.026.586-.233 1.22-.35 1.904-.35 1.063 0 1.958.26 2.687.783.73.52 1.22 1.25 1.472 2.186l1.62-.215c-.162-.648-.42-1.228-.77-1.74-.35-.515-.782-.95-1.295-1.31-.513-.36-1.094-.635-1.74-.824-.65-.188-1.343-.283-2.08-.283M244.534 14.256c-.216.756-.63 1.36-1.242 1.81-.612.45-1.404.674-2.376.674-.324 0-.68-.036-1.067-.108-.388-.072-.748-.188-1.08-.35-.334-.163-.613-.38-.838-.65-.225-.27-.337-.61-.337-1.025 0-.666.225-1.165.675-1.498.45-.334 1.035-.573 1.755-.717l1.89-.35c.557-.11 1.107-.24 1.647-.392.54-.153 1.026-.364 1.458-.634.432-.27.783-.613 1.053-1.026.27-.415.405-.945.405-1.593 0-.666-.14-1.25-.42-1.755-.278-.504-.66-.927-1.146-1.27-.486-.342-1.053-.597-1.7-.768-.65-.17-1.333-.257-2.053-.257-.703 0-1.355.09-1.96.27-.602.18-1.138.45-1.605.81-.468.36-.86.8-1.174 1.323-.315.522-.526 1.134-.634 1.836l1.62.216c.197-.99.635-1.75 1.31-2.28.674-.533 1.534-.798 2.578-.798.378 0 .778.04 1.202.122.422.08.813.216 1.174.404.36.19.657.442.89.757.235.314.352.697.352 1.147 0 .396-.08.73-.243 1-.163.27-.393.494-.69.674-.297.18-.643.324-1.04.432-.395.108-.818.207-1.268.297l-2.106.405c-.486.09-.945.23-1.377.42-.433.187-.81.42-1.135.7-.324.28-.58.62-.77 1.027-.19.404-.283.867-.283 1.39 0 .54.126 1.03.378 1.47.252.44.603.82 1.053 1.135.45.314.99.562 1.62.742.63.18 1.323.27 2.08.27.718 0 1.367-.1 1.943-.297.576-.198 1.075-.463 1.498-.796.423-.333.766-.72 1.026-1.162.26-.44.446-.904.554-1.39l-1.62-.216z" fill="#fff"/></g></svg>